<svg xmlns="http://www.w3.org/2000/svg" viewBox="0 0 3220.21 757.88"><path d="m2145.23 519.06 5.59 116.06 362.79-15.1-4.63-111.19-363.75 10.23zM2323.14 240.23c39.37 0 57.53 26.21 57.53 57.48s-19.94 57.49-57.53 57.49c-37.93 0-57.53-26.21-57.53-57.49s18.75-57.48 57.53-57.48m0 228c111.46 0 170.6-77.75 170.6-170.5s-53.89-170.47-170.6-170.47c-115 0-170.59 77.74-170.59 170.47s58.09 170.5 170.59 170.5M1731.62 487.5H1610.5v192.01h478.63V571.97l-357.51 2.83v-87.3zM1692.07 352.27V248.51h95.14v93.43c-27.4 6.65-62.19 9.44-95.14 10.33m95.14 99.86h112.09V141h-319.9v312.26s108.72-1.23 207.81-16.61ZM1952.2 119.29h121.1v408.08h-121.1zM2530.95 119.3h121.1v560.22h-121.1zM3080.22 235.44v-85.55h-116.4v-39.56h-121.1v39.56h-116.43v85.55s98.46-5.95 172.89-5.95 181 5.95 181 5.95M3099.09 590.91h-220.55v-24.2h220.55ZM2757.44 479v208.67h121.1v-8.08h220.55v8.08h121.11V479ZM2901.92 318.15c32.22 0 54 12.2 54 29.15s-21.83 29.18-54 29.18-54-12.2-54-29.18 21.82-29.15 54-29.15m1.34 138.21c113.35 0 166.92-49.72 166.92-109s-48.23-109-166.92-109c-117 0-166.93 49.73-166.93 109.05s52.52 109.05 166.93 109.05M3099.09 119.29h121.11v341.73h-121.11zM991.43 448.81h200.08v38.69H1034.8v108.06l318.77-6.02v90.26h121.12V487.5h-162.08v-38.69h206.48V344.37H991.43v104.44zM1340.3 328.27l116-.45c26.33-104.08 27.87-193.92 27.87-193.92h-447.26V241l324.38-3.63c-4 31.9-10.51 65.34-21 90.86" style="fill:#221613"/><path d="M252.34 0 0 252.62v505.26h505.56l252.32-252.63V0H252.34z" style="fill:#e61e2b"/></svg>