<svg xmlns="http://www.w3.org/2000/svg" id="_레이어_1" version="1.1" viewBox="0 0 795.1 356.2"><defs><style>.cls-4,.cls-5{stroke-width:0}.cls-4{fill:#fff}.cls-5{fill:#e2e4e5}</style></defs><path d="M795.1 356.2V0h-265v315.3c101.2 6.8 192.2 21.2 265 40.9" style="stroke-width:0;fill:#06275e"/><path d="M397.5 310.9c45.6 0 90 1.5 132.5 4.4V0H265v315.3c42.5-2.9 86.9-4.4 132.5-4.4" style="stroke-width:0;fill:#0073cf"/><path d="M265 315.3V0H0v356.2c72.8-19.8 163.8-34.1 265-40.9" style="fill:#004098;stroke-width:0"/><path d="M118.8 166v23.3H72.1v20.2h114.5v-20.2h-46.8V166z" class="cls-4"/><path d="M139.2 127.6c1.1-2.9 2-5.4 2.7-8.3l.2-.7h38.6V99H78v19.6h41.5l-.5 1.3c-6.3 16.9-23.1 28.2-43.1 29v19.8c20.3-.4 39.2-8.8 52.2-23.3l.5-.6 47 24.5 9.5-17.3-46.3-23.6.3-.8ZM312.4 159v-18H197.9v18h46.7v15.3h-44.4v17.9h82.2v21.5h24.4v-39.4h-41.2V159zM305.1 135.2V98.1H202.7v18.2h79.2v18.9zM521.3 144.5l.6-.8 30 22.5 12.4-15.3-33.7-24.1.2-.7c2.9-8.2 4.5-17.3 4.6-26.2l-21.5-1.3c-.7 26.6-13.7 46.7-32 49.4v20.1c15.2-1.1 29.1-9.5 39.4-23.7ZM571 98.1h21.4V177H571zM489 175.7v39.8h105.1v-17.4h-83.3v-22.4zM663.2 216.9c23.2 0 50.9-4.5 50.9-25.7s-27.7-25.7-50.9-25.7-50.9 4.5-50.9 25.7 27.7 25.7 50.9 25.7m0-34.5c12.9 0 28.3 1.5 28.3 8.8s-9.5 8.8-28.3 8.8-28.3-3-28.3-8.8 15.4-8.8 28.3-8.8M692.2 98.1v63.8h20.9V139h13.5v-21.1h-13.5V98.1zM609.5 157.1h48.9c10.7 0 20.8-1.5 26.5-3.9v-17c-6.1 2.2-15.5 3.5-25.6 3.5h-29V117h48V99.5h-68.8z" class="cls-4"/><path d="M465.2 230.7v-54.6H337V198h100.2v32.7zM465.8 168.2v-89h-27.6v18.9h-20.1v21.3h20.1v13.3h-20.1v21.2h20.1v14.3zM324.4 110.9h9.3l-.6 1.4c-1.6 3.3-2.4 7.1-2.4 10.9v11.7c0 20.2 14.4 32.7 37.6 32.7s37.5-12.2 37.5-32.7v-11.7c0-4.1-.8-7.8-2.2-10.9l-.6-1.4h9.4V91.3H382v-13h-27.3v13h-30.2v19.6Zm30.6 11.6c0-7.9 5-12.6 13.3-12.6s13.3 4.7 13.3 12.6v11c0 7.9-5.2 13-13.3 13s-13.3-4.5-13.3-13z" class="cls-5"/></svg>