<svg xmlns="http://www.w3.org/2000/svg" id="_레이어_1" version="1.1" viewBox="0 0 840.9299927 328.7799988"><defs><style>.st0{fill:#070517}.st1{fill:#ff7210}</style></defs><path d="M564.72 36.56h46.2v73.13h-46.2zM498.83 118.69h-46.2v81.13h158.29v-41.44H498.83zM810.38 76.03V36.56h-45.95v121.82h45.95v-39.47h30.55V76.03zM754.38 77.75V36.56H631.06v121.82h123.32v-41.19h-77.63V77.75zM759.41 165.53c-31.73 0-57.45 25.72-57.45 57.45s25.72 57.45 57.45 57.45 57.45-25.72 57.45-57.45-25.72-57.45-57.45-57.45m0 74.38c-9.35 0-16.92-7.58-16.92-16.92s7.58-16.92 16.92-16.92 16.92 7.58 16.92 16.92-7.58 16.92-16.92 16.92M475.73 0l-79.04 79.04 30.65 30.65 48.39-48.39 48.39 48.39 30.65-30.65z" class="st1"/><path d="M282.79 289.09h96.78v39.69h46.19v-81.13H282.79zM170.38 156.62h-10.05v-37.93h-45.81v121.82h45.81v-37.94h10.05v37.94h45.81V118.69h-45.81zM379.82 118.69v19.08H365.3v36.52h14.52v10.61H365.3v36.52h14.52v19.09h45.94V118.69zM0 118.69v41.19h58.78v80.62h45.7V118.68H0zM352.64 185.11c0-11.87-3.73-22.86-10.09-31.88h15.6v-34.54h-37.94v-15.36h-45.95v15.36h-37.94v34.54h15.6a55.16 55.16 0 0 0-10.09 31.88c0 30.6 24.8 55.4 55.4 55.4s55.4-24.8 55.4-55.4zm-71.72 0c0-9.01 7.31-16.32 16.32-16.32s16.32 7.31 16.32 16.32-7.31 16.32-16.32 16.32-16.32-7.31-16.32-16.32" class="st0"/></svg>