<svg xmlns="http://www.w3.org/2000/svg" width="874.17889pt" height="150pt" viewBox="0 0 874.17889 150"><path fill="#001838" d="M597.417 96.232v19.096h99.08v26.221l21.544.04.12-31.97c0-12.58-8.05-13.387-13.461-13.387zM591.284 86.755h132.39V69.722h-132.39ZM607.611 60.246l109.929-.268V42.086l-99.647.392v-15.9l90.541-.124L716.296 8.6H607.611c-6.003 0-10.194 3.796-10.194 9.23v33.193c0 5.43 4.191 9.223 10.194 9.223M371.279 79.823v-10.97h36.977c7.604 0 11.383-5.706 11.383-10.615v-48.01H398.6v13.56l-72.254.24 7.78 16.603 64.474-.001v11.232h-75.35V10.23h-21.04v47.457c0 5.592 3.957 11.167 11.383 11.167h36.746v10.97h-55.55v17.032h132.39V79.823ZM322.856 102.86H300.33v28.206c0 4.839 4.872 10.25 11.392 10.25h109.914v-19.817h-98.781zM254.942 141.99h21.039V7.838h-21.039zM235.35 43.45c.037-4.274.16-6.815.138-12.259-.02-5.593.564-12.613-3.866-16.961-4.644-4.558-9.39-4.34-15.937-4.331l-65.553.29 8.237 19.35h54.868s1.427 20.796-1.275 25.083c-10.422 16.53-60.392 69.145-60.392 69.145l15.942 12.312s50.596-50.367 64.377-72.972c2.65-4.346 3.38-10.062 3.462-19.657M838.768 113.972c0 6.004-4.798 9.05-15.614 9.05h-45.015c-8.573 0-13.53-3.552-13.53-9.05 0-6.09 4.024-9.048 13.53-9.048h45.015c10.816 0 15.614 3.044 15.614 9.048m-13.646-28.895h-46.864c-22.338 0-37.346 11.472-37.346 28.545 0 17.875 13.961 28.547 37.346 28.547h46.864c23.285 0 37.186-10.672 37.186-28.547 0-17.073-14.942-28.545-37.185-28.545M758.721 55.776v-26.16l59.403-.15 8.641-18.403H748.4c-5.174 0-11.34 2.015-11.34 11.612v41.09c0 4.876 4.81 10.357 11.25 10.392 5.679.03 16.013.041 27.273.041 22.337 0 48.302-.04 48.694-.041l1.79-.003V55.668ZM857.075 33.163l.137-25.11-21.228-.068-.254 70.696h21.176l.08-24.479h17.193V33.163ZM520.26 121.127V78.121h-22.042v43.006h-55.654v20.188h133.351v-20.188zM562.566 97.62l13.332-19.384-49.485-58.793-12.286 20.632ZM456.136 98.403l-13.588-18.945 54.736-64.748c3.595-4.255 7.445-5.99 12.471-5.99 4.65 0 7.343 1.317 11.317 4.855l3.424 3.402zM107.042 64.892c0 31.546-31.285 53.018-31.285 53.018l5.217-14.248a42.628 42.628 0 0 1-16.692 3.38c-23.616 0-42.761-19.145-42.761-42.761 0-23.615 19.145-42.76 42.761-42.76 23.615 0 42.76 18.757 42.76 43.371 0 .408 0-.406 0 0M64.282 0C28.78 0 0 28.78 0 64.28c0 35.503 28.78 64.283 64.282 64.283 2.722 0 5.405-.172 8.038-.5l-.441.5L64.024 150s64.538-32.013 64.538-85.608C128.562 28.89 99.783 0 64.282 0M128.561 64.392c0 .037 0-.038 0 0" style="fill:#00d2c3;fill-opacity:1;stroke-width:1.44231"/></svg>