<svg xmlns="http://www.w3.org/2000/svg" width="1086.8748" height="204.3463" viewBox="0 0 1086.8748 204.3463"><path fill="#43a213" d="m112.447 120.535 36.814-36.813 73.398 73.395H112.447Zm0-89.109H238.14v96.733l-88.879-88.878-36.814 36.814ZM81.024 0v107.518L0 188.541h44.439l36.585-36.582v36.582h188.539V0Z"/><path fill="#f58400" d="m297.9 90.61 67.283-67.281 67.283 67.28-16.82 16.823-50.463-50.462-50.462 50.462zM436.664 4.35h67.4v23.79h-43.611v154.62h-23.79z"/><path fill="#f58400" d="M511.995 4.35v31.719h-43.613v23.787h111.011V36.069h-43.61V4.349Z"/><path fill="#f58400" d="M523.888 115.362c-6.57 0-11.893-5.326-11.893-11.895 0-6.566 5.322-11.895 11.893-11.895 6.568 0 11.893 5.329 11.893 11.895 0 6.569-5.325 11.895-11.893 11.895m63.435-79.293v122.904h-51.542V137.11c13.858-4.9 23.787-18.107 23.787-33.643 0-19.706-15.974-35.681-35.68-35.681s-35.683 15.975-35.683 35.68c0 15.537 9.932 28.744 23.79 33.644v21.863h-43.613v23.788H611.11V36.069ZM694.812 107.432h-51.985V59.856h51.985zm-75.772 23.79h99.558V36.068H619.04zM620.362 139.151v43.61h129.956v-23.788H644.15v-19.822zM726.528 151.044h23.79V36.07h-23.79zM758.248 135.185v23.788h59.469v23.788h23.787v-23.788h59.472v-23.788zM908.906 36.069v91.186h99.119v-23.788h-75.332V59.856h75.332V36.069zM1051.195 180.56c-6.571 0-11.896-5.325-11.896-11.894 0-6.57 5.325-11.894 11.896-11.894 6.568 0 11.893 5.323 11.893 11.894s-5.325 11.893-11.893 11.893m0-47.575c-19.71 0-35.683 15.974-35.683 35.682s15.974 35.68 35.683 35.68c19.706 0 35.68-15.972 35.68-35.68s-15.974-35.682-35.68-35.682M900.976 36.069H758.248v23.787h56.302l-52.339 52.342 16.822 16.819 50.46-50.464 50.464 50.464 16.822-16.819-52.342-52.342h56.54zM1016.391 4.35h67.402v23.79h-43.612v100.439h-23.79z"/></svg>